<mxfile host="app.diagrams.net" modified="2024-05-12T03:13:52.997Z" agent="Mozilla/5.0 (Windows NT 10.0; Win64; x64) AppleWebKit/537.36 (KHTML, like Gecko) Chrome/124.0.0.0 Safari/537.36 Edg/124.0.0.0" etag="Z60lb-LX4sk1BoD9-gqZ" version="24.4.0" type="github">
  <diagram name="PÃ¡gina-1" id="Pgjr_FYbiRZ4AH31grgk">
    <mxGraphModel dx="949" dy="1107" grid="1" gridSize="10" guides="1" tooltips="1" connect="1" arrows="1" fold="1" page="1" pageScale="1" pageWidth="827" pageHeight="1169" math="0" shadow="0">
      <root>
        <mxCell id="0" />
        <mxCell id="1" parent="0" />
        <mxCell id="l1A9ekfYZtHRkDHy_yhS-1" value="" style="edgeStyle=orthogonalEdgeStyle;rounded=0;orthogonalLoop=1;jettySize=auto;html=1;" edge="1" parent="1" source="l1A9ekfYZtHRkDHy_yhS-2" target="l1A9ekfYZtHRkDHy_yhS-4">
          <mxGeometry relative="1" as="geometry" />
        </mxCell>
        <mxCell id="l1A9ekfYZtHRkDHy_yhS-2" value="inicio 1" style="ellipse;whiteSpace=wrap;html=1;" vertex="1" parent="1">
          <mxGeometry x="290" y="50" width="120" height="60" as="geometry" />
        </mxCell>
        <mxCell id="l1A9ekfYZtHRkDHy_yhS-3" value="" style="edgeStyle=orthogonalEdgeStyle;rounded=0;orthogonalLoop=1;jettySize=auto;html=1;" edge="1" parent="1" source="l1A9ekfYZtHRkDHy_yhS-4" target="l1A9ekfYZtHRkDHy_yhS-7">
          <mxGeometry relative="1" as="geometry" />
        </mxCell>
        <mxCell id="l1A9ekfYZtHRkDHy_yhS-4" value="string&lt;div&gt;s1&lt;/div&gt;&lt;div&gt;s2&lt;/div&gt;&lt;div&gt;s3&lt;/div&gt;" style="whiteSpace=wrap;html=1;" vertex="1" parent="1">
          <mxGeometry x="290" y="140" width="120" height="60" as="geometry" />
        </mxCell>
        <mxCell id="l1A9ekfYZtHRkDHy_yhS-5" value="" style="edgeStyle=orthogonalEdgeStyle;rounded=0;orthogonalLoop=1;jettySize=auto;html=1;" edge="1" parent="1" source="l1A9ekfYZtHRkDHy_yhS-7">
          <mxGeometry relative="1" as="geometry">
            <mxPoint x="450" y="270" as="targetPoint" />
          </mxGeometry>
        </mxCell>
        <mxCell id="l1A9ekfYZtHRkDHy_yhS-6" value="" style="edgeStyle=orthogonalEdgeStyle;rounded=0;orthogonalLoop=1;jettySize=auto;html=1;" edge="1" parent="1" source="l1A9ekfYZtHRkDHy_yhS-7" target="l1A9ekfYZtHRkDHy_yhS-11">
          <mxGeometry relative="1" as="geometry" />
        </mxCell>
        <mxCell id="l1A9ekfYZtHRkDHy_yhS-7" value="s1&amp;lt;=s2&lt;div&gt;&amp;nbsp;&amp;amp;&amp;amp;&lt;div&gt;s1&amp;lt;=s3&lt;/div&gt;&lt;/div&gt;" style="rhombus;whiteSpace=wrap;html=1;" vertex="1" parent="1">
          <mxGeometry x="310" y="230" width="80" height="80" as="geometry" />
        </mxCell>
        <mxCell id="l1A9ekfYZtHRkDHy_yhS-8" style="edgeStyle=orthogonalEdgeStyle;rounded=0;orthogonalLoop=1;jettySize=auto;html=1;entryX=0;entryY=0.5;entryDx=0;entryDy=0;" edge="1" parent="1" target="l1A9ekfYZtHRkDHy_yhS-22">
          <mxGeometry relative="1" as="geometry">
            <mxPoint x="570" y="270.0344827586207" as="sourcePoint" />
          </mxGeometry>
        </mxCell>
        <mxCell id="l1A9ekfYZtHRkDHy_yhS-9" value="si" style="text;html=1;align=center;verticalAlign=middle;whiteSpace=wrap;rounded=0;" vertex="1" parent="1">
          <mxGeometry x="380" y="230" width="60" height="30" as="geometry" />
        </mxCell>
        <mxCell id="l1A9ekfYZtHRkDHy_yhS-10" value="" style="edgeStyle=orthogonalEdgeStyle;rounded=0;orthogonalLoop=1;jettySize=auto;html=1;" edge="1" parent="1" source="l1A9ekfYZtHRkDHy_yhS-11" target="l1A9ekfYZtHRkDHy_yhS-17">
          <mxGeometry relative="1" as="geometry" />
        </mxCell>
        <mxCell id="l1A9ekfYZtHRkDHy_yhS-11" value="s2 &amp;lt;= s3&amp;nbsp;&lt;div&gt;&amp;amp;&amp;amp;&amp;nbsp;&lt;/div&gt;&lt;div&gt;s2&amp;lt;=s1&lt;/div&gt;" style="rhombus;whiteSpace=wrap;html=1;" vertex="1" parent="1">
          <mxGeometry x="302.5" y="350" width="95" height="90" as="geometry" />
        </mxCell>
        <mxCell id="l1A9ekfYZtHRkDHy_yhS-12" value="no" style="text;html=1;align=center;verticalAlign=middle;whiteSpace=wrap;rounded=0;" vertex="1" parent="1">
          <mxGeometry x="350" y="310" width="60" height="30" as="geometry" />
        </mxCell>
        <mxCell id="l1A9ekfYZtHRkDHy_yhS-13" value="" style="edgeStyle=orthogonalEdgeStyle;rounded=0;orthogonalLoop=1;jettySize=auto;html=1;" edge="1" parent="1">
          <mxGeometry relative="1" as="geometry">
            <mxPoint x="397.5" y="395" as="sourcePoint" />
            <mxPoint x="457.5" y="395.0000000000001" as="targetPoint" />
          </mxGeometry>
        </mxCell>
        <mxCell id="l1A9ekfYZtHRkDHy_yhS-14" style="edgeStyle=orthogonalEdgeStyle;rounded=0;orthogonalLoop=1;jettySize=auto;html=1;entryX=0;entryY=0.5;entryDx=0;entryDy=0;" edge="1" parent="1" target="l1A9ekfYZtHRkDHy_yhS-22">
          <mxGeometry relative="1" as="geometry">
            <mxPoint x="577.5" y="395.0000000000001" as="sourcePoint" />
          </mxGeometry>
        </mxCell>
        <mxCell id="l1A9ekfYZtHRkDHy_yhS-15" value="si" style="text;html=1;align=center;verticalAlign=middle;whiteSpace=wrap;rounded=0;" vertex="1" parent="1">
          <mxGeometry x="390" y="360" width="60" height="30" as="geometry" />
        </mxCell>
        <mxCell id="l1A9ekfYZtHRkDHy_yhS-16" value="" style="edgeStyle=orthogonalEdgeStyle;rounded=0;orthogonalLoop=1;jettySize=auto;html=1;" edge="1" parent="1" source="l1A9ekfYZtHRkDHy_yhS-17" target="l1A9ekfYZtHRkDHy_yhS-23">
          <mxGeometry relative="1" as="geometry" />
        </mxCell>
        <mxCell id="l1A9ekfYZtHRkDHy_yhS-17" value="s3&amp;lt;=s1&lt;div&gt;&amp;nbsp;&amp;amp;&amp;amp;&amp;nbsp;&lt;/div&gt;&lt;div&gt;s3&amp;lt;=s1&lt;/div&gt;" style="rhombus;whiteSpace=wrap;html=1;" vertex="1" parent="1">
          <mxGeometry x="310" y="480" width="80" height="80" as="geometry" />
        </mxCell>
        <mxCell id="l1A9ekfYZtHRkDHy_yhS-18" value="no" style="text;html=1;align=center;verticalAlign=middle;whiteSpace=wrap;rounded=0;" vertex="1" parent="1">
          <mxGeometry x="350" y="440" width="60" height="30" as="geometry" />
        </mxCell>
        <mxCell id="l1A9ekfYZtHRkDHy_yhS-19" value="" style="edgeStyle=orthogonalEdgeStyle;rounded=0;orthogonalLoop=1;jettySize=auto;html=1;" edge="1" parent="1">
          <mxGeometry relative="1" as="geometry">
            <mxPoint x="390" y="520" as="sourcePoint" />
            <mxPoint x="450" y="520" as="targetPoint" />
          </mxGeometry>
        </mxCell>
        <mxCell id="l1A9ekfYZtHRkDHy_yhS-20" style="edgeStyle=orthogonalEdgeStyle;rounded=0;orthogonalLoop=1;jettySize=auto;html=1;entryX=0;entryY=0.5;entryDx=0;entryDy=0;" edge="1" parent="1" target="l1A9ekfYZtHRkDHy_yhS-22">
          <mxGeometry relative="1" as="geometry">
            <mxPoint x="570" y="520" as="sourcePoint" />
          </mxGeometry>
        </mxCell>
        <mxCell id="l1A9ekfYZtHRkDHy_yhS-21" value="si" style="text;html=1;align=center;verticalAlign=middle;whiteSpace=wrap;rounded=0;" vertex="1" parent="1">
          <mxGeometry x="384" y="480" width="60" height="30" as="geometry" />
        </mxCell>
        <mxCell id="l1A9ekfYZtHRkDHy_yhS-22" value="FIN" style="ellipse;whiteSpace=wrap;html=1;" vertex="1" parent="1">
          <mxGeometry x="680" y="335" width="120" height="80" as="geometry" />
        </mxCell>
        <mxCell id="l1A9ekfYZtHRkDHy_yhS-23" value="FIN" style="ellipse;whiteSpace=wrap;html=1;" vertex="1" parent="1">
          <mxGeometry x="310" y="610" width="80" height="60" as="geometry" />
        </mxCell>
        <mxCell id="l1A9ekfYZtHRkDHy_yhS-24" value="no" style="text;html=1;align=center;verticalAlign=middle;whiteSpace=wrap;rounded=0;" vertex="1" parent="1">
          <mxGeometry x="353" y="570" width="60" height="30" as="geometry" />
        </mxCell>
        <mxCell id="l1A9ekfYZtHRkDHy_yhS-25" value="&lt;div&gt;mostar&lt;/div&gt;s1" style="shape=parallelogram;perimeter=parallelogramPerimeter;whiteSpace=wrap;html=1;fixedSize=1;" vertex="1" parent="1">
          <mxGeometry x="444" y="240" width="120" height="60" as="geometry" />
        </mxCell>
        <mxCell id="l1A9ekfYZtHRkDHy_yhS-26" value="&lt;div&gt;mostar&lt;/div&gt;s2" style="shape=parallelogram;perimeter=parallelogramPerimeter;whiteSpace=wrap;html=1;fixedSize=1;" vertex="1" parent="1">
          <mxGeometry x="450" y="355" width="140" height="75" as="geometry" />
        </mxCell>
        <mxCell id="l1A9ekfYZtHRkDHy_yhS-27" value="&lt;div&gt;mostar&lt;/div&gt;s3" style="shape=parallelogram;perimeter=parallelogramPerimeter;whiteSpace=wrap;html=1;fixedSize=1;" vertex="1" parent="1">
          <mxGeometry x="440" y="480" width="140" height="75" as="geometry" />
        </mxCell>
      </root>
    </mxGraphModel>
  </diagram>
</mxfile>
